# xmcd
#
# Track frame offsets:
# 150
# 20015
# 38156
# 54245
# 68103
# 83661
# 102041
# 117496
# 133359
# 146171
# 161022
# 180907
#
# Disc length: 2614 seconds
#
#
# Revision: 1
# Processed by: cddbd v1.5.1PL2 Copyright (c) Steve Scherf et al.
# Submitted via: FreeRIP 2.53 
#
DISCID=a10a340c
DTITLE=Adelmário Coelho - Forro pro Mundo
DYEAR=2005
DGENRE=Forro
TTITLE0=Bahia Forro e Folia
TTITLE1=Carga Pesada
TTITLE2=Feitico de Mulher
TTITLE3=Forro pro Mundo
TTITLE4=Maracatu Eta
TTITLE5=Tempo Menino
TTITLE6=Do Jeito que Sou
TTITLE7=Os Dois Lados da Paixao
TTITLE8=Fole Gemedor
TTITLE9=Forro do Bom
TTITLE10=Nao Fale Mal do Meu Pais
TTITLE11=Pra que Coracao
EXTD=
EXTT0=
EXTT1=
EXTT2=
EXTT3=
EXTT4=
EXTT5=
EXTT6=
EXTT7=
EXTT8=
EXTT9=
EXTT10=
EXTT11=
PLAYORDER=
